<?xml version="1.0" encoding="utf-8" standalone="no"?>
<!DOCTYPE svg PUBLIC "-//W3C//DTD SVG 1.1//EN"
  "http://www.w3.org/Graphics/SVG/1.1/DTD/svg11.dtd">
<!-- Created with matplotlib (https://matplotlib.org/) -->
<svg height="1440pt" version="1.1" viewBox="0 0 1800 1440" width="1800pt" xmlns="http://www.w3.org/2000/svg" xmlns:xlink="http://www.w3.org/1999/xlink">
 <metadata>
  <rdf:RDF xmlns:cc="http://creativecommons.org/ns#" xmlns:dc="http://purl.org/dc/elements/1.1/" xmlns:rdf="http://www.w3.org/1999/02/22-rdf-syntax-ns#">
   <cc:Work>
    <dc:type rdf:resource="http://purl.org/dc/dcmitype/StillImage"/>
    <dc:date>2021-02-23T17:06:19.923748</dc:date>
    <dc:format>image/svg+xml</dc:format>
    <dc:creator>
     <cc:Agent>
      <dc:title>Matplotlib v3.3.3, https://matplotlib.org/</dc:title>
     </cc:Agent>
    </dc:creator>
   </cc:Work>
  </rdf:RDF>
 </metadata>
 <defs>
  <style type="text/css">*{stroke-linecap:butt;stroke-linejoin:round;}</style>
 </defs>
 <g id="figure_1">
  <g id="patch_1">
   <path d="M 0 1440 
L 1800 1440 
L 1800 0 
L 0 0 
z
" style="fill:#ffffff;"/>
  </g>
  <g id="axes_1">
   <g id="patch_2">
    <path d="M 225 1281.6 
L 1620 1281.6 
L 1620 172.8 
L 225 172.8 
z
" style="fill:#ffffff;"/>
   </g>
   <g id="matplotlib.axis_1">
    <g id="xtick_1">
     <g id="line2d_1">
      <path clip-path="url(#pb0227bd40c)" d="M 285.67594 1281.6 
L 285.67594 172.8 
" style="fill:none;stroke:#0000ff;stroke-dasharray:1.85,0.8;stroke-dashoffset:0;stroke-opacity:0.2;stroke-width:0.5;"/>
     </g>
     <g id="line2d_2">
      <defs>
       <path d="M 0 0 
L 0 3.5 
" id="m9f53ab637c" style="stroke:#000000;stroke-width:0.8;"/>
      </defs>
      <g>
       <use style="stroke:#000000;stroke-width:0.8;" x="285.67594" xlink:href="#m9f53ab637c" y="1281.6"/>
      </g>
     </g>
     <g id="text_1">
      <!-- 0:00:00 -->
      <g transform="translate(266.40094 1296.198437)scale(0.1 -0.1)">
       <defs>
        <path d="M 31.78125 66.40625 
Q 24.171875 66.40625 20.328125 58.90625 
Q 16.5 51.421875 16.5 36.375 
Q 16.5 21.390625 20.328125 13.890625 
Q 24.171875 6.390625 31.78125 6.390625 
Q 39.453125 6.390625 43.28125 13.890625 
Q 47.125 21.390625 47.125 36.375 
Q 47.125 51.421875 43.28125 58.90625 
Q 39.453125 66.40625 31.78125 66.40625 
z
M 31.78125 74.21875 
Q 44.046875 74.21875 50.515625 64.515625 
Q 56.984375 54.828125 56.984375 36.375 
Q 56.984375 17.96875 50.515625 8.265625 
Q 44.046875 -1.421875 31.78125 -1.421875 
Q 19.53125 -1.421875 13.0625 8.265625 
Q 6.59375 17.96875 6.59375 36.375 
Q 6.59375 54.828125 13.0625 64.515625 
Q 19.53125 74.21875 31.78125 74.21875 
z
" id="DejaVuSans-48"/>
        <path d="M 11.71875 12.40625 
L 22.015625 12.40625 
L 22.015625 0 
L 11.71875 0 
z
M 11.71875 51.703125 
L 22.015625 51.703125 
L 22.015625 39.3125 
L 11.71875 39.3125 
z
" id="DejaVuSans-58"/>
       </defs>
       <use xlink:href="#DejaVuSans-48"/>
       <use x="63.623047" xlink:href="#DejaVuSans-58"/>
       <use x="97.314453" xlink:href="#DejaVuSans-48"/>
       <use x="160.9375" xlink:href="#DejaVuSans-48"/>
       <use x="224.560547" xlink:href="#DejaVuSans-58"/>
       <use x="258.251953" xlink:href="#DejaVuSans-48"/>
       <use x="321.875" xlink:href="#DejaVuSans-48"/>
      </g>
     </g>
    </g>
    <g id="xtick_2">
     <g id="line2d_3">
      <path clip-path="url(#pb0227bd40c)" d="M 613.653997 1281.6 
L 613.653997 172.8 
" style="fill:none;stroke:#0000ff;stroke-dasharray:1.85,0.8;stroke-dashoffset:0;stroke-opacity:0.2;stroke-width:0.5;"/>
     </g>
     <g id="line2d_4">
      <g>
       <use style="stroke:#000000;stroke-width:0.8;" x="613.653997" xlink:href="#m9f53ab637c" y="1281.6"/>
      </g>
     </g>
     <g id="text_2">
      <!-- 0:02:00 -->
      <g transform="translate(594.378997 1296.198437)scale(0.1 -0.1)">
       <defs>
        <path d="M 19.1875 8.296875 
L 53.609375 8.296875 
L 53.609375 0 
L 7.328125 0 
L 7.328125 8.296875 
Q 12.9375 14.109375 22.625 23.890625 
Q 32.328125 33.6875 34.8125 36.53125 
Q 39.546875 41.84375 41.421875 45.53125 
Q 43.3125 49.21875 43.3125 52.78125 
Q 43.3125 58.59375 39.234375 62.25 
Q 35.15625 65.921875 28.609375 65.921875 
Q 23.96875 65.921875 18.8125 64.3125 
Q 13.671875 62.703125 7.8125 59.421875 
L 7.8125 69.390625 
Q 13.765625 71.78125 18.9375 73 
Q 24.125 74.21875 28.421875 74.21875 
Q 39.75 74.21875 46.484375 68.546875 
Q 53.21875 62.890625 53.21875 53.421875 
Q 53.21875 48.921875 51.53125 44.890625 
Q 49.859375 40.875 45.40625 35.40625 
Q 44.1875 33.984375 37.640625 27.21875 
Q 31.109375 20.453125 19.1875 8.296875 
z
" id="DejaVuSans-50"/>
       </defs>
       <use xlink:href="#DejaVuSans-48"/>
       <use x="63.623047" xlink:href="#DejaVuSans-58"/>
       <use x="97.314453" xlink:href="#DejaVuSans-48"/>
       <use x="160.9375" xlink:href="#DejaVuSans-50"/>
       <use x="224.560547" xlink:href="#DejaVuSans-58"/>
       <use x="258.251953" xlink:href="#DejaVuSans-48"/>
       <use x="321.875" xlink:href="#DejaVuSans-48"/>
      </g>
     </g>
    </g>
    <g id="xtick_3">
     <g id="line2d_5">
      <path clip-path="url(#pb0227bd40c)" d="M 941.632053 1281.6 
L 941.632053 172.8 
" style="fill:none;stroke:#0000ff;stroke-dasharray:1.85,0.8;stroke-dashoffset:0;stroke-opacity:0.2;stroke-width:0.5;"/>
     </g>
     <g id="line2d_6">
      <g>
       <use style="stroke:#000000;stroke-width:0.8;" x="941.632053" xlink:href="#m9f53ab637c" y="1281.6"/>
      </g>
     </g>
     <g id="text_3">
      <!-- 0:04:00 -->
      <g transform="translate(922.357053 1296.198437)scale(0.1 -0.1)">
       <defs>
        <path d="M 37.796875 64.3125 
L 12.890625 25.390625 
L 37.796875 25.390625 
z
M 35.203125 72.90625 
L 47.609375 72.90625 
L 47.609375 25.390625 
L 58.015625 25.390625 
L 58.015625 17.1875 
L 47.609375 17.1875 
L 47.609375 0 
L 37.796875 0 
L 37.796875 17.1875 
L 4.890625 17.1875 
L 4.890625 26.703125 
z
" id="DejaVuSans-52"/>
       </defs>
       <use xlink:href="#DejaVuSans-48"/>
       <use x="63.623047" xlink:href="#DejaVuSans-58"/>
       <use x="97.314453" xlink:href="#DejaVuSans-48"/>
       <use x="160.9375" xlink:href="#DejaVuSans-52"/>
       <use x="224.560547" xlink:href="#DejaVuSans-58"/>
       <use x="258.251953" xlink:href="#DejaVuSans-48"/>
       <use x="321.875" xlink:href="#DejaVuSans-48"/>
      </g>
     </g>
    </g>
    <g id="xtick_4">
     <g id="line2d_7">
      <path clip-path="url(#pb0227bd40c)" d="M 1269.61011 1281.6 
L 1269.61011 172.8 
" style="fill:none;stroke:#0000ff;stroke-dasharray:1.85,0.8;stroke-dashoffset:0;stroke-opacity:0.2;stroke-width:0.5;"/>
     </g>
     <g id="line2d_8">
      <g>
       <use style="stroke:#000000;stroke-width:0.8;" x="1269.61011" xlink:href="#m9f53ab637c" y="1281.6"/>
      </g>
     </g>
     <g id="text_4">
      <!-- 0:06:00 -->
      <g transform="translate(1250.33511 1296.198437)scale(0.1 -0.1)">
       <defs>
        <path d="M 33.015625 40.375 
Q 26.375 40.375 22.484375 35.828125 
Q 18.609375 31.296875 18.609375 23.390625 
Q 18.609375 15.53125 22.484375 10.953125 
Q 26.375 6.390625 33.015625 6.390625 
Q 39.65625 6.390625 43.53125 10.953125 
Q 47.40625 15.53125 47.40625 23.390625 
Q 47.40625 31.296875 43.53125 35.828125 
Q 39.65625 40.375 33.015625 40.375 
z
M 52.59375 71.296875 
L 52.59375 62.3125 
Q 48.875 64.0625 45.09375 64.984375 
Q 41.3125 65.921875 37.59375 65.921875 
Q 27.828125 65.921875 22.671875 59.328125 
Q 17.53125 52.734375 16.796875 39.40625 
Q 19.671875 43.65625 24.015625 45.921875 
Q 28.375 48.1875 33.59375 48.1875 
Q 44.578125 48.1875 50.953125 41.515625 
Q 57.328125 34.859375 57.328125 23.390625 
Q 57.328125 12.15625 50.6875 5.359375 
Q 44.046875 -1.421875 33.015625 -1.421875 
Q 20.359375 -1.421875 13.671875 8.265625 
Q 6.984375 17.96875 6.984375 36.375 
Q 6.984375 53.65625 15.1875 63.9375 
Q 23.390625 74.21875 37.203125 74.21875 
Q 40.921875 74.21875 44.703125 73.484375 
Q 48.484375 72.75 52.59375 71.296875 
z
" id="DejaVuSans-54"/>
       </defs>
       <use xlink:href="#DejaVuSans-48"/>
       <use x="63.623047" xlink:href="#DejaVuSans-58"/>
       <use x="97.314453" xlink:href="#DejaVuSans-48"/>
       <use x="160.9375" xlink:href="#DejaVuSans-54"/>
       <use x="224.560547" xlink:href="#DejaVuSans-58"/>
       <use x="258.251953" xlink:href="#DejaVuSans-48"/>
       <use x="321.875" xlink:href="#DejaVuSans-48"/>
      </g>
     </g>
    </g>
    <g id="xtick_5">
     <g id="line2d_9">
      <path clip-path="url(#pb0227bd40c)" d="M 1597.588166 1281.6 
L 1597.588166 172.8 
" style="fill:none;stroke:#0000ff;stroke-dasharray:1.85,0.8;stroke-dashoffset:0;stroke-opacity:0.2;stroke-width:0.5;"/>
     </g>
     <g id="line2d_10">
      <g>
       <use style="stroke:#000000;stroke-width:0.8;" x="1597.588166" xlink:href="#m9f53ab637c" y="1281.6"/>
      </g>
     </g>
     <g id="text_5">
      <!-- 0:08:00 -->
      <g transform="translate(1578.313166 1296.198437)scale(0.1 -0.1)">
       <defs>
        <path d="M 31.78125 34.625 
Q 24.75 34.625 20.71875 30.859375 
Q 16.703125 27.09375 16.703125 20.515625 
Q 16.703125 13.921875 20.71875 10.15625 
Q 24.75 6.390625 31.78125 6.390625 
Q 38.8125 6.390625 42.859375 10.171875 
Q 46.921875 13.96875 46.921875 20.515625 
Q 46.921875 27.09375 42.890625 30.859375 
Q 38.875 34.625 31.78125 34.625 
z
M 21.921875 38.8125 
Q 15.578125 40.375 12.03125 44.71875 
Q 8.5 49.078125 8.5 55.328125 
Q 8.5 64.0625 14.71875 69.140625 
Q 20.953125 74.21875 31.78125 74.21875 
Q 42.671875 74.21875 48.875 69.140625 
Q 55.078125 64.0625 55.078125 55.328125 
Q 55.078125 49.078125 51.53125 44.71875 
Q 48 40.375 41.703125 38.8125 
Q 48.828125 37.15625 52.796875 32.3125 
Q 56.78125 27.484375 56.78125 20.515625 
Q 56.78125 9.90625 50.3125 4.234375 
Q 43.84375 -1.421875 31.78125 -1.421875 
Q 19.734375 -1.421875 13.25 4.234375 
Q 6.78125 9.90625 6.78125 20.515625 
Q 6.78125 27.484375 10.78125 32.3125 
Q 14.796875 37.15625 21.921875 38.8125 
z
M 18.3125 54.390625 
Q 18.3125 48.734375 21.84375 45.5625 
Q 25.390625 42.390625 31.78125 42.390625 
Q 38.140625 42.390625 41.71875 45.5625 
Q 45.3125 48.734375 45.3125 54.390625 
Q 45.3125 60.0625 41.71875 63.234375 
Q 38.140625 66.40625 31.78125 66.40625 
Q 25.390625 66.40625 21.84375 63.234375 
Q 18.3125 60.0625 18.3125 54.390625 
z
" id="DejaVuSans-56"/>
       </defs>
       <use xlink:href="#DejaVuSans-48"/>
       <use x="63.623047" xlink:href="#DejaVuSans-58"/>
       <use x="97.314453" xlink:href="#DejaVuSans-48"/>
       <use x="160.9375" xlink:href="#DejaVuSans-56"/>
       <use x="224.560547" xlink:href="#DejaVuSans-58"/>
       <use x="258.251953" xlink:href="#DejaVuSans-48"/>
       <use x="321.875" xlink:href="#DejaVuSans-48"/>
      </g>
     </g>
    </g>
    <g id="text_6">
     <!-- Time passed in minutes -->
     <g transform="translate(863.004688 1309.876563)scale(0.1 -0.1)">
      <defs>
       <path d="M -0.296875 72.90625 
L 61.375 72.90625 
L 61.375 64.59375 
L 35.5 64.59375 
L 35.5 0 
L 25.59375 0 
L 25.59375 64.59375 
L -0.296875 64.59375 
z
" id="DejaVuSans-84"/>
       <path d="M 9.421875 54.6875 
L 18.40625 54.6875 
L 18.40625 0 
L 9.421875 0 
z
M 9.421875 75.984375 
L 18.40625 75.984375 
L 18.40625 64.59375 
L 9.421875 64.59375 
z
" id="DejaVuSans-105"/>
       <path d="M 52 44.1875 
Q 55.375 50.25 60.0625 53.125 
Q 64.75 56 71.09375 56 
Q 79.640625 56 84.28125 50.015625 
Q 88.921875 44.046875 88.921875 33.015625 
L 88.921875 0 
L 79.890625 0 
L 79.890625 32.71875 
Q 79.890625 40.578125 77.09375 44.375 
Q 74.3125 48.1875 68.609375 48.1875 
Q 61.625 48.1875 57.5625 43.546875 
Q 53.515625 38.921875 53.515625 30.90625 
L 53.515625 0 
L 44.484375 0 
L 44.484375 32.71875 
Q 44.484375 40.625 41.703125 44.40625 
Q 38.921875 48.1875 33.109375 48.1875 
Q 26.21875 48.1875 22.15625 43.53125 
Q 18.109375 38.875 18.109375 30.90625 
L 18.109375 0 
L 9.078125 0 
L 9.078125 54.6875 
L 18.109375 54.6875 
L 18.109375 46.1875 
Q 21.1875 51.21875 25.484375 53.609375 
Q 29.78125 56 35.6875 56 
Q 41.65625 56 45.828125 52.96875 
Q 50 49.953125 52 44.1875 
z
" id="DejaVuSans-109"/>
       <path d="M 56.203125 29.59375 
L 56.203125 25.203125 
L 14.890625 25.203125 
Q 15.484375 15.921875 20.484375 11.0625 
Q 25.484375 6.203125 34.421875 6.203125 
Q 39.59375 6.203125 44.453125 7.46875 
Q 49.3125 8.734375 54.109375 11.28125 
L 54.109375 2.78125 
Q 49.265625 0.734375 44.1875 -0.34375 
Q 39.109375 -1.421875 33.890625 -1.421875 
Q 20.796875 -1.421875 13.15625 6.1875 
Q 5.515625 13.8125 5.515625 26.8125 
Q 5.515625 40.234375 12.765625 48.109375 
Q 20.015625 56 32.328125 56 
Q 43.359375 56 49.78125 48.890625 
Q 56.203125 41.796875 56.203125 29.59375 
z
M 47.21875 32.234375 
Q 47.125 39.59375 43.09375 43.984375 
Q 39.0625 48.390625 32.421875 48.390625 
Q 24.90625 48.390625 20.390625 44.140625 
Q 15.875 39.890625 15.1875 32.171875 
z
" id="DejaVuSans-101"/>
       <path id="DejaVuSans-32"/>
       <path d="M 18.109375 8.203125 
L 18.109375 -20.796875 
L 9.078125 -20.796875 
L 9.078125 54.6875 
L 18.109375 54.6875 
L 18.109375 46.390625 
Q 20.953125 51.265625 25.265625 53.625 
Q 29.59375 56 35.59375 56 
Q 45.5625 56 51.78125 48.09375 
Q 58.015625 40.1875 58.015625 27.296875 
Q 58.015625 14.40625 51.78125 6.484375 
Q 45.5625 -1.421875 35.59375 -1.421875 
Q 29.59375 -1.421875 25.265625 0.953125 
Q 20.953125 3.328125 18.109375 8.203125 
z
M 48.6875 27.296875 
Q 48.6875 37.203125 44.609375 42.84375 
Q 40.53125 48.484375 33.40625 48.484375 
Q 26.265625 48.484375 22.1875 42.84375 
Q 18.109375 37.203125 18.109375 27.296875 
Q 18.109375 17.390625 22.1875 11.75 
Q 26.265625 6.109375 33.40625 6.109375 
Q 40.53125 6.109375 44.609375 11.75 
Q 48.6875 17.390625 48.6875 27.296875 
z
" id="DejaVuSans-112"/>
       <path d="M 34.28125 27.484375 
Q 23.390625 27.484375 19.1875 25 
Q 14.984375 22.515625 14.984375 16.5 
Q 14.984375 11.71875 18.140625 8.90625 
Q 21.296875 6.109375 26.703125 6.109375 
Q 34.1875 6.109375 38.703125 11.40625 
Q 43.21875 16.703125 43.21875 25.484375 
L 43.21875 27.484375 
z
M 52.203125 31.203125 
L 52.203125 0 
L 43.21875 0 
L 43.21875 8.296875 
Q 40.140625 3.328125 35.546875 0.953125 
Q 30.953125 -1.421875 24.3125 -1.421875 
Q 15.921875 -1.421875 10.953125 3.296875 
Q 6 8.015625 6 15.921875 
Q 6 25.140625 12.171875 29.828125 
Q 18.359375 34.515625 30.609375 34.515625 
L 43.21875 34.515625 
L 43.21875 35.40625 
Q 43.21875 41.609375 39.140625 45 
Q 35.0625 48.390625 27.6875 48.390625 
Q 23 48.390625 18.546875 47.265625 
Q 14.109375 46.140625 10.015625 43.890625 
L 10.015625 52.203125 
Q 14.9375 54.109375 19.578125 55.046875 
Q 24.21875 56 28.609375 56 
Q 40.484375 56 46.34375 49.84375 
Q 52.203125 43.703125 52.203125 31.203125 
z
" id="DejaVuSans-97"/>
       <path d="M 44.28125 53.078125 
L 44.28125 44.578125 
Q 40.484375 46.53125 36.375 47.5 
Q 32.28125 48.484375 27.875 48.484375 
Q 21.1875 48.484375 17.84375 46.4375 
Q 14.5 44.390625 14.5 40.28125 
Q 14.5 37.15625 16.890625 35.375 
Q 19.28125 33.59375 26.515625 31.984375 
L 29.59375 31.296875 
Q 39.15625 29.25 43.1875 25.515625 
Q 47.21875 21.78125 47.21875 15.09375 
Q 47.21875 7.46875 41.1875 3.015625 
Q 35.15625 -1.421875 24.609375 -1.421875 
Q 20.21875 -1.421875 15.453125 -0.5625 
Q 10.6875 0.296875 5.421875 2 
L 5.421875 11.28125 
Q 10.40625 8.6875 15.234375 7.390625 
Q 20.0625 6.109375 24.8125 6.109375 
Q 31.15625 6.109375 34.5625 8.28125 
Q 37.984375 10.453125 37.984375 14.40625 
Q 37.984375 18.0625 35.515625 20.015625 
Q 33.0625 21.96875 24.703125 23.78125 
L 21.578125 24.515625 
Q 13.234375 26.265625 9.515625 29.90625 
Q 5.8125 33.546875 5.8125 39.890625 
Q 5.8125 47.609375 11.28125 51.796875 
Q 16.75 56 26.8125 56 
Q 31.78125 56 36.171875 55.265625 
Q 40.578125 54.546875 44.28125 53.078125 
z
" id="DejaVuSans-115"/>
       <path d="M 45.40625 46.390625 
L 45.40625 75.984375 
L 54.390625 75.984375 
L 54.390625 0 
L 45.40625 0 
L 45.40625 8.203125 
Q 42.578125 3.328125 38.25 0.953125 
Q 33.9375 -1.421875 27.875 -1.421875 
Q 17.96875 -1.421875 11.734375 6.484375 
Q 5.515625 14.40625 5.515625 27.296875 
Q 5.515625 40.1875 11.734375 48.09375 
Q 17.96875 56 27.875 56 
Q 33.9375 56 38.25 53.625 
Q 42.578125 51.265625 45.40625 46.390625 
z
M 14.796875 27.296875 
Q 14.796875 17.390625 18.875 11.75 
Q 22.953125 6.109375 30.078125 6.109375 
Q 37.203125 6.109375 41.296875 11.75 
Q 45.40625 17.390625 45.40625 27.296875 
Q 45.40625 37.203125 41.296875 42.84375 
Q 37.203125 48.484375 30.078125 48.484375 
Q 22.953125 48.484375 18.875 42.84375 
Q 14.796875 37.203125 14.796875 27.296875 
z
" id="DejaVuSans-100"/>
       <path d="M 54.890625 33.015625 
L 54.890625 0 
L 45.90625 0 
L 45.90625 32.71875 
Q 45.90625 40.484375 42.875 44.328125 
Q 39.84375 48.1875 33.796875 48.1875 
Q 26.515625 48.1875 22.3125 43.546875 
Q 18.109375 38.921875 18.109375 30.90625 
L 18.109375 0 
L 9.078125 0 
L 9.078125 54.6875 
L 18.109375 54.6875 
L 18.109375 46.1875 
Q 21.34375 51.125 25.703125 53.5625 
Q 30.078125 56 35.796875 56 
Q 45.21875 56 50.046875 50.171875 
Q 54.890625 44.34375 54.890625 33.015625 
z
" id="DejaVuSans-110"/>
       <path d="M 8.5 21.578125 
L 8.5 54.6875 
L 17.484375 54.6875 
L 17.484375 21.921875 
Q 17.484375 14.15625 20.5 10.265625 
Q 23.53125 6.390625 29.59375 6.390625 
Q 36.859375 6.390625 41.078125 11.03125 
Q 45.3125 15.671875 45.3125 23.6875 
L 45.3125 54.6875 
L 54.296875 54.6875 
L 54.296875 0 
L 45.3125 0 
L 45.3125 8.40625 
Q 42.046875 3.421875 37.71875 1 
Q 33.40625 -1.421875 27.6875 -1.421875 
Q 18.265625 -1.421875 13.375 4.4375 
Q 8.5 10.296875 8.5 21.578125 
z
M 31.109375 56 
z
" id="DejaVuSans-117"/>
       <path d="M 18.3125 70.21875 
L 18.3125 54.6875 
L 36.8125 54.6875 
L 36.8125 47.703125 
L 18.3125 47.703125 
L 18.3125 18.015625 
Q 18.3125 11.328125 20.140625 9.421875 
Q 21.96875 7.515625 27.59375 7.515625 
L 36.8125 7.515625 
L 36.8125 0 
L 27.59375 0 
Q 17.1875 0 13.234375 3.875 
Q 9.28125 7.765625 9.28125 18.015625 
L 9.28125 47.703125 
L 2.6875 47.703125 
L 2.6875 54.6875 
L 9.28125 54.6875 
L 9.28125 70.21875 
z
" id="DejaVuSans-116"/>
      </defs>
      <use xlink:href="#DejaVuSans-84"/>
      <use x="57.958984" xlink:href="#DejaVuSans-105"/>
      <use x="85.742188" xlink:href="#DejaVuSans-109"/>
      <use x="183.154297" xlink:href="#DejaVuSans-101"/>
      <use x="244.677734" xlink:href="#DejaVuSans-32"/>
      <use x="276.464844" xlink:href="#DejaVuSans-112"/>
      <use x="339.941406" xlink:href="#DejaVuSans-97"/>
      <use x="401.220703" xlink:href="#DejaVuSans-115"/>
      <use x="453.320312" xlink:href="#DejaVuSans-115"/>
      <use x="505.419922" xlink:href="#DejaVuSans-101"/>
      <use x="566.943359" xlink:href="#DejaVuSans-100"/>
      <use x="630.419922" xlink:href="#DejaVuSans-32"/>
      <use x="662.207031" xlink:href="#DejaVuSans-105"/>
      <use x="689.990234" xlink:href="#DejaVuSans-110"/>
      <use x="753.369141" xlink:href="#DejaVuSans-32"/>
      <use x="785.15625" xlink:href="#DejaVuSans-109"/>
      <use x="882.568359" xlink:href="#DejaVuSans-105"/>
      <use x="910.351562" xlink:href="#DejaVuSans-110"/>
      <use x="973.730469" xlink:href="#DejaVuSans-117"/>
      <use x="1037.109375" xlink:href="#DejaVuSans-116"/>
      <use x="1076.318359" xlink:href="#DejaVuSans-101"/>
      <use x="1137.841797" xlink:href="#DejaVuSans-115"/>
     </g>
    </g>
   </g>
   <g id="matplotlib.axis_2">
    <g id="ytick_1">
     <g id="line2d_11">
      <path clip-path="url(#pb0227bd40c)" d="M 225 1231.214799 
L 1620 1231.214799 
" style="fill:none;stroke:#0000ff;stroke-dasharray:1.85,0.8;stroke-dashoffset:0;stroke-opacity:0.2;stroke-width:0.5;"/>
     </g>
     <g id="line2d_12">
      <defs>
       <path d="M 0 0 
L -3.5 0 
" id="mf857ea00d0" style="stroke:#000000;stroke-width:0.8;"/>
      </defs>
      <g>
       <use style="stroke:#000000;stroke-width:0.8;" x="225" xlink:href="#mf857ea00d0" y="1231.214799"/>
      </g>
     </g>
     <g id="text_7">
      <!-- 0 -->
      <g transform="translate(211.6375 1235.014017)scale(0.1 -0.1)">
       <use xlink:href="#DejaVuSans-48"/>
      </g>
     </g>
    </g>
    <g id="ytick_2">
     <g id="line2d_13">
      <path clip-path="url(#pb0227bd40c)" d="M 225 1083.229773 
L 1620 1083.229773 
" style="fill:none;stroke:#0000ff;stroke-dasharray:1.85,0.8;stroke-dashoffset:0;stroke-opacity:0.2;stroke-width:0.5;"/>
     </g>
     <g id="line2d_14">
      <g>
       <use style="stroke:#000000;stroke-width:0.8;" x="225" xlink:href="#mf857ea00d0" y="1083.229773"/>
      </g>
     </g>
     <g id="text_8">
      <!-- 10000 -->
      <g transform="translate(186.1875 1087.028992)scale(0.1 -0.1)">
       <defs>
        <path d="M 12.40625 8.296875 
L 28.515625 8.296875 
L 28.515625 63.921875 
L 10.984375 60.40625 
L 10.984375 69.390625 
L 28.421875 72.90625 
L 38.28125 72.90625 
L 38.28125 8.296875 
L 54.390625 8.296875 
L 54.390625 0 
L 12.40625 0 
z
" id="DejaVuSans-49"/>
       </defs>
       <use xlink:href="#DejaVuSans-49"/>
       <use x="63.623047" xlink:href="#DejaVuSans-48"/>
       <use x="127.246094" xlink:href="#DejaVuSans-48"/>
       <use x="190.869141" xlink:href="#DejaVuSans-48"/>
       <use x="254.492188" xlink:href="#DejaVuSans-48"/>
      </g>
     </g>
    </g>
    <g id="ytick_3">
     <g id="line2d_15">
      <path clip-path="url(#pb0227bd40c)" d="M 225 935.244748 
L 1620 935.244748 
" style="fill:none;stroke:#0000ff;stroke-dasharray:1.85,0.8;stroke-dashoffset:0;stroke-opacity:0.2;stroke-width:0.5;"/>
     </g>
     <g id="line2d_16">
      <g>
       <use style="stroke:#000000;stroke-width:0.8;" x="225" xlink:href="#mf857ea00d0" y="935.244748"/>
      </g>
     </g>
     <g id="text_9">
      <!-- 20000 -->
      <g transform="translate(186.1875 939.043967)scale(0.1 -0.1)">
       <use xlink:href="#DejaVuSans-50"/>
       <use x="63.623047" xlink:href="#DejaVuSans-48"/>
       <use x="127.246094" xlink:href="#DejaVuSans-48"/>
       <use x="190.869141" xlink:href="#DejaVuSans-48"/>
       <use x="254.492188" xlink:href="#DejaVuSans-48"/>
      </g>
     </g>
    </g>
    <g id="ytick_4">
     <g id="line2d_17">
      <path clip-path="url(#pb0227bd40c)" d="M 225 787.259723 
L 1620 787.259723 
" style="fill:none;stroke:#0000ff;stroke-dasharray:1.85,0.8;stroke-dashoffset:0;stroke-opacity:0.2;stroke-width:0.5;"/>
     </g>
     <g id="line2d_18">
      <g>
       <use style="stroke:#000000;stroke-width:0.8;" x="225" xlink:href="#mf857ea00d0" y="787.259723"/>
      </g>
     </g>
     <g id="text_10">
      <!-- 30000 -->
      <g transform="translate(186.1875 791.058941)scale(0.1 -0.1)">
       <defs>
        <path d="M 40.578125 39.3125 
Q 47.65625 37.796875 51.625 33 
Q 55.609375 28.21875 55.609375 21.1875 
Q 55.609375 10.40625 48.1875 4.484375 
Q 40.765625 -1.421875 27.09375 -1.421875 
Q 22.515625 -1.421875 17.65625 -0.515625 
Q 12.796875 0.390625 7.625 2.203125 
L 7.625 11.71875 
Q 11.71875 9.328125 16.59375 8.109375 
Q 21.484375 6.890625 26.8125 6.890625 
Q 36.078125 6.890625 40.9375 10.546875 
Q 45.796875 14.203125 45.796875 21.1875 
Q 45.796875 27.640625 41.28125 31.265625 
Q 36.765625 34.90625 28.71875 34.90625 
L 20.21875 34.90625 
L 20.21875 43.015625 
L 29.109375 43.015625 
Q 36.375 43.015625 40.234375 45.921875 
Q 44.09375 48.828125 44.09375 54.296875 
Q 44.09375 59.90625 40.109375 62.90625 
Q 36.140625 65.921875 28.71875 65.921875 
Q 24.65625 65.921875 20.015625 65.03125 
Q 15.375 64.15625 9.8125 62.3125 
L 9.8125 71.09375 
Q 15.4375 72.65625 20.34375 73.4375 
Q 25.25 74.21875 29.59375 74.21875 
Q 40.828125 74.21875 47.359375 69.109375 
Q 53.90625 64.015625 53.90625 55.328125 
Q 53.90625 49.265625 50.4375 45.09375 
Q 46.96875 40.921875 40.578125 39.3125 
z
" id="DejaVuSans-51"/>
       </defs>
       <use xlink:href="#DejaVuSans-51"/>
       <use x="63.623047" xlink:href="#DejaVuSans-48"/>
       <use x="127.246094" xlink:href="#DejaVuSans-48"/>
       <use x="190.869141" xlink:href="#DejaVuSans-48"/>
       <use x="254.492188" xlink:href="#DejaVuSans-48"/>
      </g>
     </g>
    </g>
    <g id="ytick_5">
     <g id="line2d_19">
      <path clip-path="url(#pb0227bd40c)" d="M 225 639.274697 
L 1620 639.274697 
" style="fill:none;stroke:#0000ff;stroke-dasharray:1.85,0.8;stroke-dashoffset:0;stroke-opacity:0.2;stroke-width:0.5;"/>
     </g>
     <g id="line2d_20">
      <g>
       <use style="stroke:#000000;stroke-width:0.8;" x="225" xlink:href="#mf857ea00d0" y="639.274697"/>
      </g>
     </g>
     <g id="text_11">
      <!-- 40000 -->
      <g transform="translate(186.1875 643.073916)scale(0.1 -0.1)">
       <use xlink:href="#DejaVuSans-52"/>
       <use x="63.623047" xlink:href="#DejaVuSans-48"/>
       <use x="127.246094" xlink:href="#DejaVuSans-48"/>
       <use x="190.869141" xlink:href="#DejaVuSans-48"/>
       <use x="254.492188" xlink:href="#DejaVuSans-48"/>
      </g>
     </g>
    </g>
    <g id="ytick_6">
     <g id="line2d_21">
      <path clip-path="url(#pb0227bd40c)" d="M 225 491.289672 
L 1620 491.289672 
" style="fill:none;stroke:#0000ff;stroke-dasharray:1.85,0.8;stroke-dashoffset:0;stroke-opacity:0.2;stroke-width:0.5;"/>
     </g>
     <g id="line2d_22">
      <g>
       <use style="stroke:#000000;stroke-width:0.8;" x="225" xlink:href="#mf857ea00d0" y="491.289672"/>
      </g>
     </g>
     <g id="text_12">
      <!-- 50000 -->
      <g transform="translate(186.1875 495.088891)scale(0.1 -0.1)">
       <defs>
        <path d="M 10.796875 72.90625 
L 49.515625 72.90625 
L 49.515625 64.59375 
L 19.828125 64.59375 
L 19.828125 46.734375 
Q 21.96875 47.46875 24.109375 47.828125 
Q 26.265625 48.1875 28.421875 48.1875 
Q 40.625 48.1875 47.75 41.5 
Q 54.890625 34.8125 54.890625 23.390625 
Q 54.890625 11.625 47.5625 5.09375 
Q 40.234375 -1.421875 26.90625 -1.421875 
Q 22.3125 -1.421875 17.546875 -0.640625 
Q 12.796875 0.140625 7.71875 1.703125 
L 7.71875 11.625 
Q 12.109375 9.234375 16.796875 8.0625 
Q 21.484375 6.890625 26.703125 6.890625 
Q 35.15625 6.890625 40.078125 11.328125 
Q 45.015625 15.765625 45.015625 23.390625 
Q 45.015625 31 40.078125 35.4375 
Q 35.15625 39.890625 26.703125 39.890625 
Q 22.75 39.890625 18.8125 39.015625 
Q 14.890625 38.140625 10.796875 36.28125 
z
" id="DejaVuSans-53"/>
       </defs>
       <use xlink:href="#DejaVuSans-53"/>
       <use x="63.623047" xlink:href="#DejaVuSans-48"/>
       <use x="127.246094" xlink:href="#DejaVuSans-48"/>
       <use x="190.869141" xlink:href="#DejaVuSans-48"/>
       <use x="254.492188" xlink:href="#DejaVuSans-48"/>
      </g>
     </g>
    </g>
    <g id="ytick_7">
     <g id="line2d_23">
      <path clip-path="url(#pb0227bd40c)" d="M 225 343.304647 
L 1620 343.304647 
" style="fill:none;stroke:#0000ff;stroke-dasharray:1.85,0.8;stroke-dashoffset:0;stroke-opacity:0.2;stroke-width:0.5;"/>
     </g>
     <g id="line2d_24">
      <g>
       <use style="stroke:#000000;stroke-width:0.8;" x="225" xlink:href="#mf857ea00d0" y="343.304647"/>
      </g>
     </g>
     <g id="text_13">
      <!-- 60000 -->
      <g transform="translate(186.1875 347.103865)scale(0.1 -0.1)">
       <use xlink:href="#DejaVuSans-54"/>
       <use x="63.623047" xlink:href="#DejaVuSans-48"/>
       <use x="127.246094" xlink:href="#DejaVuSans-48"/>
       <use x="190.869141" xlink:href="#DejaVuSans-48"/>
       <use x="254.492188" xlink:href="#DejaVuSans-48"/>
      </g>
     </g>
    </g>
    <g id="ytick_8">
     <g id="line2d_25">
      <path clip-path="url(#pb0227bd40c)" d="M 225 195.319621 
L 1620 195.319621 
" style="fill:none;stroke:#0000ff;stroke-dasharray:1.85,0.8;stroke-dashoffset:0;stroke-opacity:0.2;stroke-width:0.5;"/>
     </g>
     <g id="line2d_26">
      <g>
       <use style="stroke:#000000;stroke-width:0.8;" x="225" xlink:href="#mf857ea00d0" y="195.319621"/>
      </g>
     </g>
     <g id="text_14">
      <!-- 70000 -->
      <g transform="translate(186.1875 199.11884)scale(0.1 -0.1)">
       <defs>
        <path d="M 8.203125 72.90625 
L 55.078125 72.90625 
L 55.078125 68.703125 
L 28.609375 0 
L 18.3125 0 
L 43.21875 64.59375 
L 8.203125 64.59375 
z
" id="DejaVuSans-55"/>
       </defs>
       <use xlink:href="#DejaVuSans-55"/>
       <use x="63.623047" xlink:href="#DejaVuSans-48"/>
       <use x="127.246094" xlink:href="#DejaVuSans-48"/>
       <use x="190.869141" xlink:href="#DejaVuSans-48"/>
       <use x="254.492188" xlink:href="#DejaVuSans-48"/>
      </g>
     </g>
    </g>
    <g id="text_15">
     <!-- Throughput in TPM -->
     <g transform="translate(180.107812 774.358594)rotate(-90)scale(0.1 -0.1)">
      <defs>
       <path d="M 54.890625 33.015625 
L 54.890625 0 
L 45.90625 0 
L 45.90625 32.71875 
Q 45.90625 40.484375 42.875 44.328125 
Q 39.84375 48.1875 33.796875 48.1875 
Q 26.515625 48.1875 22.3125 43.546875 
Q 18.109375 38.921875 18.109375 30.90625 
L 18.109375 0 
L 9.078125 0 
L 9.078125 75.984375 
L 18.109375 75.984375 
L 18.109375 46.1875 
Q 21.34375 51.125 25.703125 53.5625 
Q 30.078125 56 35.796875 56 
Q 45.21875 56 50.046875 50.171875 
Q 54.890625 44.34375 54.890625 33.015625 
z
" id="DejaVuSans-104"/>
       <path d="M 41.109375 46.296875 
Q 39.59375 47.171875 37.8125 47.578125 
Q 36.03125 48 33.890625 48 
Q 26.265625 48 22.1875 43.046875 
Q 18.109375 38.09375 18.109375 28.8125 
L 18.109375 0 
L 9.078125 0 
L 9.078125 54.6875 
L 18.109375 54.6875 
L 18.109375 46.1875 
Q 20.953125 51.171875 25.484375 53.578125 
Q 30.03125 56 36.53125 56 
Q 37.453125 56 38.578125 55.875 
Q 39.703125 55.765625 41.0625 55.515625 
z
" id="DejaVuSans-114"/>
       <path d="M 30.609375 48.390625 
Q 23.390625 48.390625 19.1875 42.75 
Q 14.984375 37.109375 14.984375 27.296875 
Q 14.984375 17.484375 19.15625 11.84375 
Q 23.34375 6.203125 30.609375 6.203125 
Q 37.796875 6.203125 41.984375 11.859375 
Q 46.1875 17.53125 46.1875 27.296875 
Q 46.1875 37.015625 41.984375 42.703125 
Q 37.796875 48.390625 30.609375 48.390625 
z
M 30.609375 56 
Q 42.328125 56 49.015625 48.375 
Q 55.71875 40.765625 55.71875 27.296875 
Q 55.71875 13.875 49.015625 6.21875 
Q 42.328125 -1.421875 30.609375 -1.421875 
Q 18.84375 -1.421875 12.171875 6.21875 
Q 5.515625 13.875 5.515625 27.296875 
Q 5.515625 40.765625 12.171875 48.375 
Q 18.84375 56 30.609375 56 
z
" id="DejaVuSans-111"/>
       <path d="M 45.40625 27.984375 
Q 45.40625 37.75 41.375 43.109375 
Q 37.359375 48.484375 30.078125 48.484375 
Q 22.859375 48.484375 18.828125 43.109375 
Q 14.796875 37.75 14.796875 27.984375 
Q 14.796875 18.265625 18.828125 12.890625 
Q 22.859375 7.515625 30.078125 7.515625 
Q 37.359375 7.515625 41.375 12.890625 
Q 45.40625 18.265625 45.40625 27.984375 
z
M 54.390625 6.78125 
Q 54.390625 -7.171875 48.1875 -13.984375 
Q 42 -20.796875 29.203125 -20.796875 
Q 24.46875 -20.796875 20.265625 -20.09375 
Q 16.0625 -19.390625 12.109375 -17.921875 
L 12.109375 -9.1875 
Q 16.0625 -11.328125 19.921875 -12.34375 
Q 23.78125 -13.375 27.78125 -13.375 
Q 36.625 -13.375 41.015625 -8.765625 
Q 45.40625 -4.15625 45.40625 5.171875 
L 45.40625 9.625 
Q 42.625 4.78125 38.28125 2.390625 
Q 33.9375 0 27.875 0 
Q 17.828125 0 11.671875 7.65625 
Q 5.515625 15.328125 5.515625 27.984375 
Q 5.515625 40.671875 11.671875 48.328125 
Q 17.828125 56 27.875 56 
Q 33.9375 56 38.28125 53.609375 
Q 42.625 51.21875 45.40625 46.390625 
L 45.40625 54.6875 
L 54.390625 54.6875 
z
" id="DejaVuSans-103"/>
       <path d="M 19.671875 64.796875 
L 19.671875 37.40625 
L 32.078125 37.40625 
Q 38.96875 37.40625 42.71875 40.96875 
Q 46.484375 44.53125 46.484375 51.125 
Q 46.484375 57.671875 42.71875 61.234375 
Q 38.96875 64.796875 32.078125 64.796875 
z
M 9.8125 72.90625 
L 32.078125 72.90625 
Q 44.34375 72.90625 50.609375 67.359375 
Q 56.890625 61.8125 56.890625 51.125 
Q 56.890625 40.328125 50.609375 34.8125 
Q 44.34375 29.296875 32.078125 29.296875 
L 19.671875 29.296875 
L 19.671875 0 
L 9.8125 0 
z
" id="DejaVuSans-80"/>
       <path d="M 9.8125 72.90625 
L 24.515625 72.90625 
L 43.109375 23.296875 
L 61.8125 72.90625 
L 76.515625 72.90625 
L 76.515625 0 
L 66.890625 0 
L 66.890625 64.015625 
L 48.09375 14.015625 
L 38.1875 14.015625 
L 19.390625 64.015625 
L 19.390625 0 
L 9.8125 0 
z
" id="DejaVuSans-77"/>
      </defs>
      <use xlink:href="#DejaVuSans-84"/>
      <use x="61.083984" xlink:href="#DejaVuSans-104"/>
      <use x="124.462891" xlink:href="#DejaVuSans-114"/>
      <use x="163.326172" xlink:href="#DejaVuSans-111"/>
      <use x="224.507812" xlink:href="#DejaVuSans-117"/>
      <use x="287.886719" xlink:href="#DejaVuSans-103"/>
      <use x="351.363281" xlink:href="#DejaVuSans-104"/>
      <use x="414.742188" xlink:href="#DejaVuSans-112"/>
      <use x="478.21875" xlink:href="#DejaVuSans-117"/>
      <use x="541.597656" xlink:href="#DejaVuSans-116"/>
      <use x="580.806641" xlink:href="#DejaVuSans-32"/>
      <use x="612.59375" xlink:href="#DejaVuSans-105"/>
      <use x="640.376953" xlink:href="#DejaVuSans-110"/>
      <use x="703.755859" xlink:href="#DejaVuSans-32"/>
      <use x="735.542969" xlink:href="#DejaVuSans-84"/>
      <use x="796.626953" xlink:href="#DejaVuSans-80"/>
      <use x="856.929688" xlink:href="#DejaVuSans-77"/>
     </g>
    </g>
   </g>
   <g id="line2d_27">
    <path clip-path="url(#pb0227bd40c)" d="M 288.409091 1231.2 
L 291.142241 1231.066813 
L 293.875392 1230.682052 
L 296.608542 1230.075314 
L 299.341693 1229.187404 
L 302.074843 1228.699053 
L 307.541144 1225.783748 
L 310.274295 1224.126316 
L 315.740596 1220.204713 
L 318.473746 1218.088527 
L 321.206897 1216.283109 
L 323.940047 1214.314909 
L 329.406348 1210.896455 
L 332.139498 1209.017045 
L 334.872649 1207.418806 
L 340.33895 1203.452808 
L 343.0721 1202.224532 
L 345.805251 1200.123145 
L 348.538401 1199.131645 
L 351.271552 1196.734288 
L 359.471003 1189.912178 
L 362.204154 1189.216648 
L 367.670455 1185.561418 
L 370.403605 1184.717904 
L 373.136755 1184.229553 
L 378.603056 1180.085972 
L 381.336207 1177.599824 
L 386.802508 1173.914997 
L 389.535658 1171.473244 
L 403.201411 1160.329971 
L 405.934561 1159.915613 
L 408.667712 1158.613345 
L 411.400862 1157.799427 
L 416.867163 1153.789033 
L 419.600313 1152.04281 
L 422.333464 1150.133803 
L 425.066614 1149.527065 
L 427.799765 1146.656155 
L 430.532915 1145.265096 
L 433.266066 1144.110813 
L 435.999216 1141.609866 
L 438.732367 1140.67756 
L 441.465517 1140.633165 
L 444.198668 1139.612068 
L 446.931818 1137.466285 
L 449.664969 1134.698965 
L 452.398119 1132.434794 
L 455.13127 1132.627175 
L 457.86442 1133.352301 
L 460.597571 1132.405197 
L 463.330721 1130.866153 
L 466.063871 1131.561682 
L 468.797022 1130.377802 
L 471.530172 1130.185422 
L 474.263323 1132.715966 
L 476.996473 1134.728562 
L 479.729624 1134.772957 
L 487.929075 1135.631271 
L 490.662226 1137.61427 
L 493.395376 1138.916538 
L 496.128527 1139.182911 
L 498.861677 1139.242105 
L 501.594828 1138.368994 
L 504.327978 1138.516979 
L 507.061129 1139.98203 
L 509.794279 1141.624664 
L 512.527429 1143.459678 
L 515.26058 1143.400484 
L 517.99373 1143.800044 
L 520.726881 1143.474477 
L 523.460031 1143.518872 
L 526.193182 1145.857036 
L 528.926332 1146.670954 
L 531.659483 1145.205902 
L 534.392633 1145.472275 
L 537.125784 1146.005021 
L 539.858934 1147.49967 
L 542.592085 1147.973222 
L 545.325235 1147.248095 
L 548.058386 1149.319885 
L 550.791536 1150.474169 
L 553.524687 1152.309183 
L 556.257837 1153.389474 
L 561.724138 1153.241489 
L 564.457288 1154.440167 
L 567.190439 1154.824928 
L 569.923589 1156.156794 
L 572.65674 1155.061704 
L 575.38989 1155.831227 
L 580.856191 1156.98551 
L 583.589342 1156.571152 
L 586.322492 1157.089099 
L 589.055643 1158.539353 
L 591.788793 1158.657741 
L 594.521944 1158.657741 
L 597.255094 1159.75283 
L 599.988245 1157.740233 
L 602.721395 1155.964413 
L 605.454545 1156.58595 
L 608.187696 1160.167188 
L 610.920846 1162.41656 
L 616.387147 1162.460956 
L 619.120298 1162.061396 
L 621.853448 1162.150187 
L 624.586599 1159.590046 
L 627.319749 1158.790927 
L 630.0529 1161.454658 
L 632.78605 1161.573046 
L 635.519201 1161.558247 
L 638.252351 1162.046598 
L 640.985502 1163.052896 
L 643.718652 1161.854217 
L 646.451803 1162.890112 
L 649.184953 1163.319269 
L 651.918103 1160.818322 
L 654.651254 1160.788725 
L 657.384404 1159.826822 
L 660.117555 1159.249681 
L 662.850705 1160.759128 
L 665.583856 1161.469456 
L 668.317006 1161.439859 
L 671.050157 1161.247479 
L 717.513715 1161.247479 
L 720.246865 1184.229553 
L 1556.590909 1184.229553 
L 1556.590909 1184.229553 
" style="fill:none;stroke:#1f77b4;stroke-linecap:square;stroke-width:1.5;"/>
   </g>
   <g id="line2d_28">
    <path clip-path="url(#pb0227bd40c)" d="M 288.409091 1230.948425 
L 291.142241 1228.906232 
L 293.875392 1225.147412 
L 296.608542 1219.420392 
L 299.341693 1211.63638 
L 302.074843 1205.568994 
L 304.807994 1193.404625 
L 307.541144 1178.369346 
L 310.274295 1161.987404 
L 313.007445 1144.821141 
L 315.740596 1125.094737 
L 318.473746 1104.021669 
L 321.206897 1087.077384 
L 323.940047 1071.183792 
L 326.673197 1054.076723 
L 329.406348 1037.813169 
L 332.139498 1022.77789 
L 334.872649 1006.336754 
L 337.605799 987.335477 
L 343.0721 956.86536 
L 345.805251 935.629509 
L 348.538401 926.52843 
L 351.271552 904.182691 
L 354.004702 883.302004 
L 359.471003 840.134772 
L 362.204154 832.572737 
L 364.937304 812.269192 
L 367.670455 795.132526 
L 370.403605 785.617089 
L 373.136755 779.949262 
L 378.603056 735.672143 
L 381.336207 711.994539 
L 384.069357 693.096851 
L 386.802508 673.059678 
L 389.535658 649.263686 
L 392.268809 624.22462 
L 395.001959 601.49412 
L 397.73511 582.063686 
L 403.201411 541.264215 
L 405.934561 537.150231 
L 408.667712 523.269236 
L 411.400862 515.751597 
L 414.134013 494.66373 
L 419.600313 456.409601 
L 422.333464 437.319533 
L 425.066614 431.858886 
L 427.799765 401.891918 
L 430.532915 386.338692 
L 433.266066 375.964942 
L 435.999216 350.851883 
L 438.732367 339.945386 
L 441.465517 339.575424 
L 444.198668 328.298965 
L 446.931818 303.629861 
L 449.664969 276.163841 
L 452.398119 252.663819 
L 455.13127 255.12037 
L 457.86442 261.64651 
L 460.597571 251.849901 
L 463.330721 238.22048 
L 466.063871 244.879806 
L 468.797022 231.857124 
L 471.530172 231.738736 
L 474.263323 254.765206 
L 476.996473 274.817177 
L 479.729624 274.343625 
L 482.462774 270.999163 
L 485.195925 270.288835 
L 487.929075 269.016164 
L 490.662226 286.685576 
L 493.395376 300.818146 
L 496.128527 299.441885 
L 498.861677 298.642766 
L 501.594828 288.431799 
L 504.327978 293.744462 
L 507.061129 309.623255 
L 509.794279 322.453556 
L 512.527429 340.093372 
L 515.26058 339.664215 
L 517.99373 342.342744 
L 520.726881 335.668619 
L 523.460031 347.196653 
L 526.193182 359.257432 
L 528.926332 366.937855 
L 531.659483 352.435323 
L 534.392633 356.815679 
L 537.125784 361.477208 
L 539.858934 378.15512 
L 542.592085 377.444792 
L 545.325235 372.664876 
L 550.791536 412.872407 
L 553.524687 427.981678 
L 556.257837 430.882185 
L 558.990987 429.239551 
L 561.724138 427.049372 
L 564.457288 438.93257 
L 567.190439 442.868972 
L 569.923589 455.033341 
L 572.65674 441.729487 
L 575.38989 449.839066 
L 578.123041 456.971945 
L 580.856191 465.466285 
L 583.589342 460.627175 
L 586.322492 466.783352 
L 589.055643 490.638538 
L 591.788793 485.103898 
L 594.521944 486.0658 
L 597.255094 494.752521 
L 599.988245 472.03682 
L 602.721395 454.278617 
L 605.454545 472.895133 
L 608.187696 500.523937 
L 610.920846 521.892975 
L 613.653997 522.262938 
L 616.387147 522.262938 
L 619.120298 519.732394 
L 621.853448 517.468223 
L 624.586599 492.488351 
L 627.319749 485.385069 
L 630.0529 509.861793 
L 632.78605 510.764501 
L 635.519201 510.838494 
L 638.252351 517.483021 
L 640.985502 527.131645 
L 643.718652 515.381634 
L 646.451803 529.099846 
L 649.184953 533.465404 
L 651.918103 510.261352 
L 654.651254 508.811099 
L 657.384404 496.084387 
L 660.117555 487.279278 
L 662.850705 503.95719 
L 665.583856 510.290949 
L 668.317006 509.861793 
L 671.050157 508.618718 
L 1556.590909 508.618718 
L 1556.590909 508.618718 
" style="fill:none;stroke:#ff7f0e;stroke-linecap:square;stroke-width:1.5;"/>
   </g>
   <g id="line2d_29">
    <path clip-path="url(#pb0227bd40c)" d="M 288.409091 1231.185201 
L 291.142241 1230.963224 
L 293.875392 1230.534067 
L 296.608542 1229.956926 
L 299.341693 1229.202202 
L 302.074843 1228.610262 
L 304.807994 1227.219203 
L 307.541144 1225.694957 
L 313.007445 1222.380092 
L 318.473746 1218.103325 
L 321.206897 1216.357102 
L 323.940047 1214.847655 
L 329.406348 1211.488395 
L 332.139498 1209.904955 
L 337.605799 1206.072143 
L 343.0721 1202.653689 
L 345.805251 1200.833473 
L 348.538401 1199.945563 
L 351.271552 1197.489011 
L 354.004702 1195.269236 
L 356.737853 1193.315834 
L 359.471003 1190.992469 
L 362.204154 1190.193349 
L 367.670455 1186.301343 
L 370.403605 1185.413433 
L 373.136755 1184.925083 
L 375.869906 1183.030874 
L 381.336207 1178.532129 
L 386.802508 1174.595728 
L 392.268809 1169.53464 
L 395.001959 1167.536842 
L 397.73511 1165.169082 
L 400.46826 1163.245276 
L 403.201411 1160.907113 
L 405.934561 1160.433561 
L 408.667712 1158.805726 
L 411.400862 1157.843823 
L 414.134013 1155.905219 
L 416.867163 1154.306981 
L 419.600313 1152.33878 
L 422.333464 1150.56296 
L 425.066614 1149.897027 
L 427.799765 1146.493372 
L 430.532915 1144.880335 
L 433.266066 1143.874037 
L 435.999216 1141.698657 
L 438.732367 1140.67756 
L 441.465517 1140.647963 
L 444.198668 1139.49368 
L 446.931818 1137.347897 
L 449.664969 1134.55098 
L 452.398119 1132.109227 
L 455.13127 1132.242414 
L 457.86442 1133.041533 
L 460.597571 1132.153623 
L 463.330721 1130.59978 
L 466.063871 1131.813257 
L 468.797022 1130.274213 
L 471.530172 1130.141026 
L 474.263323 1132.686369 
L 476.996473 1134.669368 
L 479.729624 1134.610174 
L 482.462774 1134.684166 
L 485.195925 1134.417793 
L 487.929075 1133.692667 
L 490.662226 1135.794054 
L 496.128527 1137.347897 
L 498.861677 1137.155516 
L 501.594828 1135.986435 
L 504.327978 1136.607972 
L 507.061129 1136.607972 
L 509.794279 1139.449284 
L 512.527429 1141.580269 
L 515.26058 1141.210306 
L 517.99373 1141.728254 
L 520.726881 1141.461881 
L 526.193182 1142.527373 
L 528.926332 1144.673156 
L 531.659483 1143.030522 
L 534.392633 1143.563268 
L 537.125784 1143.948029 
L 539.858934 1145.590663 
L 542.592085 1146.064215 
L 545.325235 1145.635058 
L 548.058386 1147.455274 
L 550.791536 1149.67505 
L 556.257837 1151.776437 
L 561.724138 1151.436071 
L 564.457288 1152.886325 
L 567.190439 1153.345078 
L 569.923589 1154.972913 
L 572.65674 1153.448668 
L 575.38989 1153.803832 
L 578.123041 1153.951817 
L 580.856191 1155.727637 
L 583.589342 1155.046906 
L 586.322492 1155.890421 
L 589.055643 1158.613345 
L 591.788793 1157.977009 
L 594.521944 1157.799427 
L 597.255094 1158.258181 
L 599.988245 1155.80163 
L 602.721395 1154.262585 
L 608.187696 1157.725435 
L 610.920846 1160.788725 
L 619.120298 1160.788725 
L 621.853448 1160.078397 
L 624.586599 1157.488659 
L 627.319749 1156.778331 
L 630.0529 1159.323673 
L 635.519201 1159.412464 
L 638.252351 1160.004404 
L 640.985502 1160.907113 
L 643.718652 1159.575248 
L 646.451803 1161.010702 
L 649.184953 1161.010702 
L 651.918103 1159.45686 
L 654.651254 1159.279278 
L 657.384404 1158.021405 
L 660.117555 1157.251883 
L 662.850705 1159.027703 
L 665.583856 1159.530852 
L 668.317006 1159.427263 
L 671.050157 1159.190487 
L 1556.590909 1159.190487 
L 1556.590909 1159.190487 
" style="fill:none;stroke:#2ca02c;stroke-linecap:square;stroke-width:1.5;"/>
   </g>
   <g id="line2d_30">
    <path clip-path="url(#pb0227bd40c)" d="M 288.409091 1230.874433 
L 291.142241 1229.054217 
L 293.875392 1224.807047 
L 296.608542 1218.858049 
L 299.341693 1211.04444 
L 302.074843 1205.450606 
L 304.807994 1193.670998 
L 307.541144 1180.174763 
L 310.274295 1164.118388 
L 313.007445 1146.389782 
L 318.473746 1104.539617 
L 329.406348 1036.570095 
L 334.872649 1005.863202 
L 337.605799 986.743537 
L 343.0721 955.296719 
L 345.805251 933.439331 
L 348.538401 923.583528 
L 354.004702 880.593878 
L 356.737853 859.609601 
L 359.471003 837.456243 
L 362.204154 830.885708 
L 364.937304 810.463774 
L 367.670455 793.652676 
L 370.403605 783.619291 
L 373.136755 778.232636 
L 375.869906 756.123673 
L 381.336207 709.197622 
L 384.069357 691.631799 
L 386.802508 671.431843 
L 395.001959 599.61471 
L 400.46826 558.460075 
L 403.201411 538.304514 
L 405.934561 534.442105 
L 408.667712 520.679498 
L 411.400862 513.324642 
L 422.333464 434.433825 
L 425.066614 428.869588 
L 427.799765 399.198591 
L 430.532915 383.941335 
L 433.266066 372.872055 
L 435.999216 347.196653 
L 438.732367 336.186567 
L 441.465517 335.787007 
L 444.198668 324.954503 
L 446.931818 300.551773 
L 449.664969 272.90817 
L 452.398119 249.452543 
L 455.13127 251.331953 
L 457.86442 258.938384 
L 460.597571 248.712618 
L 463.330721 233.840123 
L 466.063871 239.433957 
L 468.797022 224.916626 
L 471.530172 223.2 
L 474.263323 246.700022 
L 476.996473 267.003567 
L 479.729624 269.889275 
L 482.462774 267.935873 
L 487.929075 266.722396 
L 490.662226 284.391808 
L 493.395376 295.697864 
L 496.128527 297.488483 
L 498.861677 298.272803 
L 501.594828 289.245717 
L 504.327978 295.771856 
L 507.061129 309.031315 
L 509.794279 326.034794 
L 512.527429 343.86699 
L 515.26058 342.786699 
L 517.99373 345.716802 
L 520.726881 339.841797 
L 523.460031 351.281039 
L 526.193182 363.386214 
L 528.926332 372.502092 
L 531.659483 357.955164 
L 534.392633 362.73508 
L 537.125784 361.713984 
L 539.858934 385.258401 
L 542.592085 384.814446 
L 545.325235 379.679366 
L 550.791536 420.967188 
L 553.524687 436.742392 
L 556.257837 440.604801 
L 558.990987 438.784585 
L 561.724138 437.215944 
L 564.457288 449.40991 
L 567.190439 453.390707 
L 569.923589 465.481083 
L 572.65674 450.460603 
L 575.38989 458.732966 
L 578.123041 465.732658 
L 580.856191 474.271394 
L 583.589342 470.172209 
L 586.322492 476.121207 
L 589.055643 498.940498 
L 591.788793 494.36776 
L 594.521944 496.513543 
L 597.255094 505.126272 
L 599.988245 483.624048 
L 602.721395 467.508478 
L 605.454545 485.311077 
L 608.187696 512.185157 
L 610.920846 535.256023 
L 613.653997 535.77397 
L 616.387147 535.77397 
L 619.120298 534.486501 
L 621.853448 533.40621 
L 624.586599 507.109271 
L 627.319749 501.249064 
L 630.0529 526.450914 
L 632.78605 527.708787 
L 635.519201 527.812376 
L 638.252351 533.657785 
L 640.985502 540.12473 
L 643.718652 528.818674 
L 646.451803 542.166924 
L 649.184953 546.94684 
L 651.918103 523.535609 
L 654.651254 522.292535 
L 657.384404 508.426338 
L 660.117555 499.01449 
L 662.850705 515.100462 
L 665.583856 520.975468 
L 668.317006 520.590707 
L 671.050157 518.814887 
L 679.249608 518.814887 
L 681.982759 578.86721 
L 717.513715 578.86721 
L 720.246865 751.417749 
L 1556.590909 751.417749 
L 1556.590909 751.417749 
" style="fill:none;stroke:#d62728;stroke-linecap:square;stroke-width:1.5;"/>
   </g>
   <g id="line2d_31">
    <path clip-path="url(#pb0227bd40c)" d="M 288.409091 1231.185201 
L 291.142241 1231.007619 
L 293.875392 1230.593261 
L 296.608542 1230.030918 
L 299.341693 1229.217001 
L 302.074843 1228.684255 
L 304.807994 1227.618762 
L 310.274295 1224.67386 
L 313.007445 1223.016428 
L 315.740596 1220.929839 
L 318.473746 1219.065228 
L 323.940047 1215.572781 
L 326.673197 1213.767364 
L 334.872649 1208.957851 
L 337.605799 1206.98965 
L 340.33895 1205.287822 
L 343.0721 1203.837569 
L 345.805251 1201.499405 
L 348.538401 1200.552301 
L 351.271552 1198.347324 
L 354.004702 1196.349527 
L 356.737853 1194.766087 
L 359.471003 1192.797886 
L 362.204154 1191.983968 
L 364.937304 1189.912178 
L 367.670455 1188.254746 
L 370.403605 1187.500022 
L 373.136755 1186.863686 
L 375.869906 1184.392336 
L 378.603056 1182.231755 
L 381.336207 1179.775204 
L 386.802508 1175.631623 
L 389.535658 1173.263863 
L 395.001959 1169.075886 
L 397.73511 1167.300066 
L 400.46826 1164.784321 
L 403.201411 1162.756926 
L 405.934561 1162.238978 
L 408.667712 1160.551949 
L 411.400862 1159.974807 
L 414.134013 1157.814226 
L 422.333464 1152.131601 
L 425.066614 1151.436071 
L 427.799765 1148.491169 
L 430.532915 1146.892931 
L 433.266066 1146.049416 
L 435.999216 1143.252499 
L 438.732367 1142.172209 
L 441.465517 1142.127813 
L 444.198668 1140.943933 
L 446.931818 1138.709359 
L 449.664969 1136.164017 
L 452.398119 1133.840652 
L 455.13127 1133.973838 
L 457.86442 1134.74336 
L 460.597571 1133.811055 
L 463.330721 1132.301608 
L 466.063871 1132.77516 
L 468.797022 1131.620876 
L 471.530172 1131.280511 
L 474.263323 1133.233913 
L 476.996473 1135.350099 
L 479.729624 1135.660868 
L 482.462774 1135.14292 
L 485.195925 1135.172517 
L 487.929075 1134.935741 
L 490.662226 1136.504382 
L 493.395376 1138.324598 
L 496.128527 1138.117419 
L 498.861677 1138.398591 
L 501.594828 1137.658665 
L 504.327978 1137.91024 
L 507.061129 1139.848844 
L 509.794279 1140.366791 
L 512.527429 1143.14891 
L 515.26058 1142.630962 
L 517.99373 1142.497776 
L 520.726881 1141.935433 
L 523.460031 1142.571768 
L 526.193182 1144.214402 
L 528.926332 1144.895133 
L 531.659483 1143.430081 
L 534.392633 1144.155208 
L 537.125784 1143.977626 
L 539.858934 1146.167804 
L 542.592085 1145.945827 
L 545.325235 1145.531469 
L 548.058386 1147.662453 
L 550.791536 1147.662453 
L 553.524687 1150.696146 
L 556.257837 1150.548161 
L 558.990987 1150.133803 
L 561.724138 1150.311385 
L 564.457288 1151.584056 
L 567.190439 1152.131601 
L 569.923589 1153.300683 
L 572.65674 1151.658049 
L 575.38989 1152.486765 
L 578.123041 1152.368377 
L 580.856191 1153.848227 
L 583.589342 1153.345078 
L 586.322492 1154.025809 
L 589.055643 1155.624048 
L 594.521944 1155.875622 
L 597.255094 1157.044704 
L 599.988245 1154.81013 
L 602.721395 1153.123101 
L 605.454545 1155.032107 
L 608.187696 1157.503457 
L 610.920846 1159.560449 
L 616.387147 1159.501255 
L 621.853448 1158.909315 
L 624.586599 1156.645144 
L 627.319749 1156.038406 
L 630.0529 1158.716935 
L 632.78605 1158.879718 
L 638.252351 1158.894517 
L 640.985502 1160.359568 
L 643.718652 1159.116494 
L 646.451803 1159.841621 
L 649.184953 1160.803523 
L 651.918103 1158.598547 
L 654.651254 1158.657741 
L 657.384404 1157.059502 
L 660.117555 1156.053204 
L 662.850705 1157.518256 
L 665.583856 1157.947412 
L 668.317006 1157.858621 
L 671.050157 1157.607047 
L 717.513715 1157.607047 
L 720.246865 1182.290949 
L 1556.590909 1182.290949 
L 1556.590909 1182.290949 
" style="fill:none;stroke:#9467bd;stroke-linecap:square;stroke-width:1.5;"/>
   </g>
   <g id="line2d_32">
    <path clip-path="url(#pb0227bd40c)" d="M 449.664969 1281.6 
L 449.664969 172.8 
" style="fill:none;stroke:#ff0000;stroke-dasharray:3.7,1.6;stroke-dashoffset:0;"/>
   </g>
   <g id="line2d_33">
    <path clip-path="url(#pb0227bd40c)" d="M 599.988245 1281.6 
L 599.988245 172.8 
" style="fill:none;stroke:#008000;stroke-dasharray:3.7,1.6;stroke-dashoffset:0;"/>
   </g>
   <g id="line2d_34">
    <path clip-path="url(#pb0227bd40c)" d="M 728.446317 1281.6 
L 728.446317 172.8 
" style="fill:none;stroke:#0000ff;stroke-dasharray:3.7,1.6;stroke-dashoffset:0;"/>
   </g>
   <g id="patch_3">
    <path d="M 225 1281.6 
L 225 172.8 
" style="fill:none;stroke:#000000;stroke-linecap:square;stroke-linejoin:miter;stroke-width:0.8;"/>
   </g>
   <g id="patch_4">
    <path d="M 1620 1281.6 
L 1620 172.8 
" style="fill:none;stroke:#000000;stroke-linecap:square;stroke-linejoin:miter;stroke-width:0.8;"/>
   </g>
   <g id="patch_5">
    <path d="M 225 1281.6 
L 1620 1281.6 
" style="fill:none;stroke:#000000;stroke-linecap:square;stroke-linejoin:miter;stroke-width:0.8;"/>
   </g>
   <g id="patch_6">
    <path d="M 225 172.8 
L 1620 172.8 
" style="fill:none;stroke:#000000;stroke-linecap:square;stroke-linejoin:miter;stroke-width:0.8;"/>
   </g>
   <g id="text_16">
    <!-- Throughput -->
    <g transform="translate(887.652187 166.8)scale(0.12 -0.12)">
     <use xlink:href="#DejaVuSans-84"/>
     <use x="61.083984" xlink:href="#DejaVuSans-104"/>
     <use x="124.462891" xlink:href="#DejaVuSans-114"/>
     <use x="163.326172" xlink:href="#DejaVuSans-111"/>
     <use x="224.507812" xlink:href="#DejaVuSans-117"/>
     <use x="287.886719" xlink:href="#DejaVuSans-103"/>
     <use x="351.363281" xlink:href="#DejaVuSans-104"/>
     <use x="414.742188" xlink:href="#DejaVuSans-112"/>
     <use x="478.21875" xlink:href="#DejaVuSans-117"/>
     <use x="541.597656" xlink:href="#DejaVuSans-116"/>
    </g>
   </g>
   <g id="legend_1">
    <g id="patch_7">
     <path d="M 1532.88125 254.190625 
L 1613 254.190625 
Q 1615 254.190625 1615 252.190625 
L 1615 179.8 
Q 1615 177.8 1613 177.8 
L 1532.88125 177.8 
Q 1530.88125 177.8 1530.88125 179.8 
L 1530.88125 252.190625 
Q 1530.88125 254.190625 1532.88125 254.190625 
z
" style="fill:#ffffff;opacity:0.8;stroke:#cccccc;stroke-linejoin:miter;"/>
    </g>
    <g id="line2d_35">
     <path d="M 1534.88125 185.898437 
L 1554.88125 185.898437 
" style="fill:none;stroke:#1f77b4;stroke-linecap:square;stroke-width:1.5;"/>
    </g>
    <g id="line2d_36"/>
    <g id="text_17">
     <!-- DELIVERY -->
     <g transform="translate(1562.88125 189.398437)scale(0.1 -0.1)">
      <defs>
       <path d="M 19.671875 64.796875 
L 19.671875 8.109375 
L 31.59375 8.109375 
Q 46.6875 8.109375 53.6875 14.9375 
Q 60.6875 21.78125 60.6875 36.53125 
Q 60.6875 51.171875 53.6875 57.984375 
Q 46.6875 64.796875 31.59375 64.796875 
z
M 9.8125 72.90625 
L 30.078125 72.90625 
Q 51.265625 72.90625 61.171875 64.09375 
Q 71.09375 55.28125 71.09375 36.53125 
Q 71.09375 17.671875 61.125 8.828125 
Q 51.171875 0 30.078125 0 
L 9.8125 0 
z
" id="DejaVuSans-68"/>
       <path d="M 9.8125 72.90625 
L 55.90625 72.90625 
L 55.90625 64.59375 
L 19.671875 64.59375 
L 19.671875 43.015625 
L 54.390625 43.015625 
L 54.390625 34.71875 
L 19.671875 34.71875 
L 19.671875 8.296875 
L 56.78125 8.296875 
L 56.78125 0 
L 9.8125 0 
z
" id="DejaVuSans-69"/>
       <path d="M 9.8125 72.90625 
L 19.671875 72.90625 
L 19.671875 8.296875 
L 55.171875 8.296875 
L 55.171875 0 
L 9.8125 0 
z
" id="DejaVuSans-76"/>
       <path d="M 9.8125 72.90625 
L 19.671875 72.90625 
L 19.671875 0 
L 9.8125 0 
z
" id="DejaVuSans-73"/>
       <path d="M 28.609375 0 
L 0.78125 72.90625 
L 11.078125 72.90625 
L 34.1875 11.53125 
L 57.328125 72.90625 
L 67.578125 72.90625 
L 39.796875 0 
z
" id="DejaVuSans-86"/>
       <path d="M 44.390625 34.1875 
Q 47.5625 33.109375 50.5625 29.59375 
Q 53.5625 26.078125 56.59375 19.921875 
L 66.609375 0 
L 56 0 
L 46.6875 18.703125 
Q 43.0625 26.03125 39.671875 28.421875 
Q 36.28125 30.8125 30.421875 30.8125 
L 19.671875 30.8125 
L 19.671875 0 
L 9.8125 0 
L 9.8125 72.90625 
L 32.078125 72.90625 
Q 44.578125 72.90625 50.734375 67.671875 
Q 56.890625 62.453125 56.890625 51.90625 
Q 56.890625 45.015625 53.6875 40.46875 
Q 50.484375 35.9375 44.390625 34.1875 
z
M 19.671875 64.796875 
L 19.671875 38.921875 
L 32.078125 38.921875 
Q 39.203125 38.921875 42.84375 42.21875 
Q 46.484375 45.515625 46.484375 51.90625 
Q 46.484375 58.296875 42.84375 61.546875 
Q 39.203125 64.796875 32.078125 64.796875 
z
" id="DejaVuSans-82"/>
       <path d="M -0.203125 72.90625 
L 10.40625 72.90625 
L 30.609375 42.921875 
L 50.6875 72.90625 
L 61.28125 72.90625 
L 35.5 34.71875 
L 35.5 0 
L 25.59375 0 
L 25.59375 34.71875 
z
" id="DejaVuSans-89"/>
      </defs>
      <use xlink:href="#DejaVuSans-68"/>
      <use x="77.001953" xlink:href="#DejaVuSans-69"/>
      <use x="140.185547" xlink:href="#DejaVuSans-76"/>
      <use x="195.898438" xlink:href="#DejaVuSans-73"/>
      <use x="225.390625" xlink:href="#DejaVuSans-86"/>
      <use x="293.798828" xlink:href="#DejaVuSans-69"/>
      <use x="356.982422" xlink:href="#DejaVuSans-82"/>
      <use x="420.089844" xlink:href="#DejaVuSans-89"/>
     </g>
    </g>
    <g id="line2d_37">
     <path d="M 1534.88125 200.576562 
L 1554.88125 200.576562 
" style="fill:none;stroke:#ff7f0e;stroke-linecap:square;stroke-width:1.5;"/>
    </g>
    <g id="line2d_38"/>
    <g id="text_18">
     <!-- NEWORD -->
     <g transform="translate(1562.88125 204.076562)scale(0.1 -0.1)">
      <defs>
       <path d="M 9.8125 72.90625 
L 23.09375 72.90625 
L 55.421875 11.921875 
L 55.421875 72.90625 
L 64.984375 72.90625 
L 64.984375 0 
L 51.703125 0 
L 19.390625 60.984375 
L 19.390625 0 
L 9.8125 0 
z
" id="DejaVuSans-78"/>
       <path d="M 3.328125 72.90625 
L 13.28125 72.90625 
L 28.609375 11.28125 
L 43.890625 72.90625 
L 54.984375 72.90625 
L 70.3125 11.28125 
L 85.59375 72.90625 
L 95.609375 72.90625 
L 77.296875 0 
L 64.890625 0 
L 49.515625 63.28125 
L 33.984375 0 
L 21.578125 0 
z
" id="DejaVuSans-87"/>
       <path d="M 39.40625 66.21875 
Q 28.65625 66.21875 22.328125 58.203125 
Q 16.015625 50.203125 16.015625 36.375 
Q 16.015625 22.609375 22.328125 14.59375 
Q 28.65625 6.59375 39.40625 6.59375 
Q 50.140625 6.59375 56.421875 14.59375 
Q 62.703125 22.609375 62.703125 36.375 
Q 62.703125 50.203125 56.421875 58.203125 
Q 50.140625 66.21875 39.40625 66.21875 
z
M 39.40625 74.21875 
Q 54.734375 74.21875 63.90625 63.9375 
Q 73.09375 53.65625 73.09375 36.375 
Q 73.09375 19.140625 63.90625 8.859375 
Q 54.734375 -1.421875 39.40625 -1.421875 
Q 24.03125 -1.421875 14.8125 8.828125 
Q 5.609375 19.09375 5.609375 36.375 
Q 5.609375 53.65625 14.8125 63.9375 
Q 24.03125 74.21875 39.40625 74.21875 
z
" id="DejaVuSans-79"/>
      </defs>
      <use xlink:href="#DejaVuSans-78"/>
      <use x="74.804688" xlink:href="#DejaVuSans-69"/>
      <use x="137.988281" xlink:href="#DejaVuSans-87"/>
      <use x="236.865234" xlink:href="#DejaVuSans-79"/>
      <use x="315.576172" xlink:href="#DejaVuSans-82"/>
      <use x="385.058594" xlink:href="#DejaVuSans-68"/>
     </g>
    </g>
    <g id="line2d_39">
     <path d="M 1534.88125 215.254687 
L 1554.88125 215.254687 
" style="fill:none;stroke:#2ca02c;stroke-linecap:square;stroke-width:1.5;"/>
    </g>
    <g id="line2d_40"/>
    <g id="text_19">
     <!-- OSTAT -->
     <g transform="translate(1562.88125 218.754687)scale(0.1 -0.1)">
      <defs>
       <path d="M 53.515625 70.515625 
L 53.515625 60.890625 
Q 47.90625 63.578125 42.921875 64.890625 
Q 37.9375 66.21875 33.296875 66.21875 
Q 25.25 66.21875 20.875 63.09375 
Q 16.5 59.96875 16.5 54.203125 
Q 16.5 49.359375 19.40625 46.890625 
Q 22.3125 44.4375 30.421875 42.921875 
L 36.375 41.703125 
Q 47.40625 39.59375 52.65625 34.296875 
Q 57.90625 29 57.90625 20.125 
Q 57.90625 9.515625 50.796875 4.046875 
Q 43.703125 -1.421875 29.984375 -1.421875 
Q 24.8125 -1.421875 18.96875 -0.25 
Q 13.140625 0.921875 6.890625 3.21875 
L 6.890625 13.375 
Q 12.890625 10.015625 18.65625 8.296875 
Q 24.421875 6.59375 29.984375 6.59375 
Q 38.421875 6.59375 43.015625 9.90625 
Q 47.609375 13.234375 47.609375 19.390625 
Q 47.609375 24.75 44.3125 27.78125 
Q 41.015625 30.8125 33.5 32.328125 
L 27.484375 33.5 
Q 16.453125 35.6875 11.515625 40.375 
Q 6.59375 45.0625 6.59375 53.421875 
Q 6.59375 63.09375 13.40625 68.65625 
Q 20.21875 74.21875 32.171875 74.21875 
Q 37.3125 74.21875 42.625 73.28125 
Q 47.953125 72.359375 53.515625 70.515625 
z
" id="DejaVuSans-83"/>
       <path d="M 34.1875 63.1875 
L 20.796875 26.90625 
L 47.609375 26.90625 
z
M 28.609375 72.90625 
L 39.796875 72.90625 
L 67.578125 0 
L 57.328125 0 
L 50.6875 18.703125 
L 17.828125 18.703125 
L 11.1875 0 
L 0.78125 0 
z
" id="DejaVuSans-65"/>
      </defs>
      <use xlink:href="#DejaVuSans-79"/>
      <use x="78.710938" xlink:href="#DejaVuSans-83"/>
      <use x="142.1875" xlink:href="#DejaVuSans-84"/>
      <use x="195.521484" xlink:href="#DejaVuSans-65"/>
      <use x="256.179688" xlink:href="#DejaVuSans-84"/>
     </g>
    </g>
    <g id="line2d_41">
     <path d="M 1534.88125 229.932812 
L 1554.88125 229.932812 
" style="fill:none;stroke:#d62728;stroke-linecap:square;stroke-width:1.5;"/>
    </g>
    <g id="line2d_42"/>
    <g id="text_20">
     <!-- PAYMENT -->
     <g transform="translate(1562.88125 233.432812)scale(0.1 -0.1)">
      <use xlink:href="#DejaVuSans-80"/>
      <use x="53.927734" xlink:href="#DejaVuSans-65"/>
      <use x="114.585938" xlink:href="#DejaVuSans-89"/>
      <use x="175.669922" xlink:href="#DejaVuSans-77"/>
      <use x="261.949219" xlink:href="#DejaVuSans-69"/>
      <use x="325.132812" xlink:href="#DejaVuSans-78"/>
      <use x="399.9375" xlink:href="#DejaVuSans-84"/>
     </g>
    </g>
    <g id="line2d_43">
     <path d="M 1534.88125 244.610937 
L 1554.88125 244.610937 
" style="fill:none;stroke:#9467bd;stroke-linecap:square;stroke-width:1.5;"/>
    </g>
    <g id="line2d_44"/>
    <g id="text_21">
     <!-- SLEV -->
     <g transform="translate(1562.88125 248.110937)scale(0.1 -0.1)">
      <use xlink:href="#DejaVuSans-83"/>
      <use x="63.476562" xlink:href="#DejaVuSans-76"/>
      <use x="119.189453" xlink:href="#DejaVuSans-69"/>
      <use x="182.373047" xlink:href="#DejaVuSans-86"/>
     </g>
    </g>
   </g>
  </g>
 </g>
 <defs>
  <clipPath id="pb0227bd40c">
   <rect height="1108.8" width="1395" x="225" y="172.8"/>
  </clipPath>
 </defs>
</svg>
